<svg xmlns="http://www.w3.org/2000/svg" viewBox="0 0 40 40" aria-hidden="true" focusable="false"><defs><linearGradient id="g" x1="0" y1="0" x2="1" y2="1"><stop offset="0%" stop-color="#f0d363"/><stop offset="45%" stop-color="#eba484"/><stop offset="100%" stop-color="#6dadd2"/></linearGradient></defs><path d="M 28.3 5.9 C 24 4.8, 19 4.6, 15.3 5.1 C 12 5.6, 11 7.5, 10.8 9.2 C 10.2 11.5, 9.8 13.5, 9.7 15.4 C 9.6 17.5, 10.5 19, 12.3 20 C 13.5 20.7, 14.5 21.4, 15.8 22.2 C 17 23, 18 23.6, 19.3 23.4 C 22 23, 25 21, 27.3 19.2 C 28.5 21.5, 29.5 24.5, 30 27.5 C 29.5 29.5, 28.5 30.8, 27 31.4 C 25.5 32.2, 24 33, 22.1 33.2 C 19.5 33.5, 16.5 33, 14.2 32.2 C 12.5 31.5, 10.8 29.8, 9.5 27.6 C 11.5 29.5, 13.5 30.2, 15.6 30.2 C 18 30.2, 20.5 29.6, 21.9 28.8 C 23.2 28, 23.6 27, 23.8 26.4 C 24 25.6, 24 25, 23.5 24.5 C 22.5 23.8, 21.5 23.3, 20.7 22.8 C 20 22, 21.5 19, 21.9 16.2 C 20.8 15.6, 19.2 15.3, 18.2 15 C 17.5 14.7, 16.8 14.2, 16.1 13.8 C 16.2 13.3, 16.2 12.9, 16.3 12.6 C 16.8 12, 17.2 11.6, 17.6 11.4 C 18.2 11.2, 18.9 11.1, 19.5 11.1 C 21.5 11.2, 23.5 11.5, 25.7 12.1 C 28.3 11.8, 29.8 9.5, 28.3 5.9 Z" fill="url(#g)"/><path d="M 26 36 C 20 37.5, 13.5 36, 10 31.5" fill="none" stroke="#a1c799" stroke-width="3" stroke-linecap="round" opacity="0.85"/></svg>